<?xml version="1.0" encoding="UTF-8"?>
<svg id="Calque_1" data-name="Calque 1" xmlns="http://www.w3.org/2000/svg" viewBox="0 0 680.31 680.31">
  <defs>
    <style>
      .cls-1 {
        fill: #0043ce;
      }
    </style>
  </defs>
  <path class="cls-1" d="M395.63,109.71c-77.91-3.3-147.76,31.59-192.54,87.46h85.45c31.64-21.05,70.49-32.12,112.09-28.61,85.28,7.18,153.68,76.65,159.64,162.02,7.16,102.47-73.86,187.83-174.81,187.83-35.84,0-69.16-10.78-96.92-29.25h-85.46c42.82,53.42,108.58,87.67,182.37,87.67,129.19,0,233.91-104.86,233.67-234.1-.22-124.03-99.57-227.74-223.49-233.01Z"/>
  <path class="cls-1" d="M109.58,406.39h258.55c6.43,0,11.64,5.21,11.64,11.64v31.07c0,3.19-2.59,5.78-5.78,5.78h-242.82c-4.56,0-8.72-2.61-10.7-6.73-5.37-11.16-10.74-22.32-16.11-33.48-1.84-3.83.95-8.29,5.21-8.29h0Z"/>
  <path class="cls-1" d="M86.24,318.76h258.55c6.43,0,11.64,5.21,11.64,11.64v31.07c0,3.19-2.59,5.78-5.78,5.78H107.84c-4.56,0-8.72-2.61-10.7-6.73-5.37-11.16-10.74-22.32-16.11-33.48-1.84-3.83.95-8.29,5.21-8.29h0Z"/>
  <path class="cls-1" d="M62.99,231.14h258.55c6.43,0,11.64,5.21,11.64,11.64v31.07c0,3.19-2.59,5.78-5.78,5.78H84.58c-4.56,0-8.72-2.61-10.7-6.73-5.37-11.16-10.74-22.32-16.11-33.48-1.84-3.83.95-8.29,5.21-8.29h0Z"/>
</svg>