<?xml version="1.0" encoding="UTF-8"?>
<svg id="Calque_1" data-name="Calque 1" xmlns="http://www.w3.org/2000/svg" viewBox="0 0 2679.75 1133.03">
  <defs>
    <style>
      .cls-1 {
        fill: #fff;
      }
    </style>
  </defs>
  <g>
    <path class="cls-1" d="M1259.25,312.41c-77.89,0-132.68,56.58-132.68,139.34s54.79,139.34,132.68,139.34,133.06-56.58,133.06-139.34-54.79-139.34-133.06-139.34ZM1259.25,542.96c-46.22,0-79.39-34.25-79.39-91.21s33.17-91.22,79.39-91.22,79.77,34.25,79.77,91.22-33.19,91.21-79.77,91.21Z"/>
    <path class="cls-1" d="M1554.35,360.53c33.55,0,58.51,21.17,70.07,55.42l46.58-17.71c-16.77-55.03-60.38-85.84-116.66-85.84-76.4,0-130.83,56.58-130.83,139.34s54.43,139.34,130.83,139.34c56.28,0,99.89-30.79,116.66-85.84l-46.58-17.71c-11.56,34.25-36.52,55.42-70.07,55.42-45.1,0-77.52-34.25-77.52-91.21s32.43-91.22,77.52-91.22Z"/>
    <polygon class="cls-1" points="1885.22 539.89 1753.28 539.89 1753.28 471.76 1869.2 471.76 1869.2 425.96 1753.28 425.96 1753.28 363.61 1885.22 363.61 1885.22 317.04 1702.22 317.04 1702.22 586.46 1885.22 586.46 1885.22 539.89"/>
    <path class="cls-1" d="M1994.34,516.79h97.64l24.98,69.67h54.41l-102.86-269.43h-49.57l-102.5,269.43h52.93l24.98-69.67ZM2043.17,379.78l33.53,93.91h-67.08l33.55-93.91Z"/>
    <polygon class="cls-1" points="2377.39 317.03 2377.39 499.48 2249.55 317.03 2202.58 317.03 2202.58 586.46 2253.27 586.46 2253.27 404.02 2381.11 586.46 2428.07 586.46 2428.07 317.03 2377.39 317.03"/>
    <path class="cls-1" d="M1465.82,750.55l-12.16-3.17c-9.73-2.49-22.68-7.05-22.62-18.96,0-10.58,9.66-18.43,24.98-18.43,14.29,0,24.45,6.69,25.78,18.18h18.12c-.56-19.94-18.18-34.41-43.48-34.41s-44.14,14.28-44.14,35.74c0,17.33,12.41,27.49,32.4,32.9l14.72,4.01c13.31,3.53,23.58,7.91,23.58,18.97,0,12.16-11.61,20.18-27.6,20.19-14.46,0-26.51-6.44-27.61-20h-18.85c1.23,22.56,18.67,36.48,46.58,36.48s46.09-15.38,46.09-36.48c0-22.43-20-31.13-35.81-35.02Z"/>
    <polygon class="cls-1" points="1296.95 752.06 1295.61 752.06 1263.09 695.45 1241.74 695.45 1286.92 771.09 1286.92 819.98 1305.65 819.98 1305.65 771.09 1350.82 695.45 1329.48 695.45 1296.95 752.06"/>
    <polygon class="cls-1" points="1604.93 749.56 1542.86 749.56 1542.86 695.45 1524.07 695.45 1524.07 819.98 1542.86 819.98 1542.86 765.68 1604.93 765.68 1604.93 819.98 1623.78 819.98 1623.78 695.45 1604.93 695.45 1604.93 749.56"/>
    <rect class="cls-1" x="1651.13" y="695.45" width="18.79" height="124.53"/>
    <polygon class="cls-1" points="1697.29 819.98 1716.07 819.98 1716.07 765.68 1768.97 765.68 1768.97 749.56 1716.07 749.56 1716.07 711.63 1774.49 711.63 1774.49 695.45 1697.29 695.45 1697.29 819.98"/>
    <polygon class="cls-1" points="1791.47 711.64 1830.26 711.64 1830.26 819.98 1848.98 819.98 1848.98 711.64 1887.83 711.64 1887.83 695.45 1791.47 695.45 1791.47 711.64"/>
    <polygon class="cls-1" points="1973.03 792.25 1971.58 792.25 1931.93 695.45 1909.13 695.45 1909.13 819.98 1927 819.98 1927 729.81 1928.17 729.81 1964.89 819.8 1979.72 819.8 2016.45 729.86 2017.6 729.86 2017.6 819.98 2035.48 819.98 2035.48 695.45 2012.67 695.45 1973.03 792.25"/>
    <polygon class="cls-1" points="2235.12 796.87 2233.73 796.87 2199.07 695.45 2178.76 695.45 2223.57 819.98 2245.28 819.98 2290.09 695.45 2269.78 695.45 2235.12 796.87"/>
    <polygon class="cls-1" points="2326.88 765.68 2382.08 765.68 2382.08 749.58 2326.88 749.58 2326.88 711.63 2386.15 711.63 2386.15 695.45 2308.08 695.45 2308.08 819.98 2386.88 819.98 2386.88 803.81 2326.88 803.81 2326.88 765.68"/>
    <path class="cls-1" d="M2114.89,693.76c-32.34,0-56.11,24.14-56.11,63.96s23.77,63.97,56.11,63.97c32.24,0,56.06-24.14,56.06-63.97s-23.82-63.96-56.06-63.96ZM2114.89,804.54c-21.45,0-37.44-16.48-37.44-46.82s15.99-46.82,37.44-46.82c21.41,0,37.46,16.48,37.46,46.82s-16.05,46.82-37.46,46.82Z"/>
    <path class="cls-1" d="M1203.23,755.65v-1.22c11.43-2.92,20.98-10.7,20.98-26.26,0-18.42-12.77-32.72-39.27-32.72h-45.6v124.53h47.72c28.94,0,42.01-14.41,42.01-33.5s-13.5-30.16-25.85-30.83ZM1158.11,711.44h25.67c14.89,0,22,7.85,22,18.18,0,12.04-9.85,19.7-22.49,19.7h-25.18v-37.88ZM1185.24,803.86h-27.12v-39.88h27.78c15.08,0,24.51,9.73,24.51,21.59,0,10.46-7.11,18.3-25.17,18.3Z"/>
  </g>
  <g>
    <path class="cls-1" d="M661.28,284.32c-94.29-4-178.84,38.23-233.04,105.85h103.42c38.3-25.48,85.32-38.87,135.66-34.63,103.21,8.69,186,92.77,193.21,196.09,8.66,124.02-89.39,227.33-211.57,227.33-43.38,0-83.7-13.05-117.3-35.4h-103.43c51.83,64.66,131.42,106.11,220.73,106.11,156.36,0,283.1-126.91,282.81-283.34-.27-150.12-120.51-275.64-270.5-282Z"/>
    <path class="cls-1" d="M315.07,643.39h312.93c7.78,0,14.09,6.31,14.09,14.09v37.6c0,3.86-3.13,6.99-6.99,6.99h-293.89c-5.52,0-10.55-3.16-12.95-8.14-6.5-13.51-13-27.02-19.5-40.52-2.23-4.64,1.15-10.03,6.3-10.03Z"/>
    <path class="cls-1" d="M286.83,537.33h312.93c7.78,0,14.09,6.31,14.09,14.09v37.6c0,3.86-3.13,6.99-6.99,6.99h-293.89c-5.52,0-10.55-3.16-12.95-8.14-6.5-13.51-13-27.02-19.5-40.52-2.23-4.64,1.15-10.03,6.3-10.03Z"/>
    <path class="cls-1" d="M258.68,431.28h312.93c7.78,0,14.09,6.31,14.09,14.09v37.6c0,3.86-3.13,6.99-6.99,6.99h-293.89c-5.52,0-10.55-3.16-12.95-8.14-6.5-13.51-13-27.02-19.5-40.52-2.23-4.64,1.15-10.03,6.3-10.03Z"/>
  </g>
</svg>